# xmcd CD database file
#
# Track frame offsets:
#	150
#	14696
#	37440
#	47950
#	65799
#	94485
#	114750
#	131355
#	143681
#	154228
#	167272
#	181725
#	203373
#
# Disc length: 3008 seconds
#
# Revision: 0
# Processed by: cddbd v1.5.1PL2 Copyright (c) Steve Scherf et al.
# Submitted via: CDex 1.51
#
DISCID=b10bbe0d
DTITLE=Brisa Roche - Soothe Me
DYEAR=2003
DGENRE=Jazz
TTITLE0=Glad to be Unhappy
TTITLE1=Melancholy Lullaby
TTITLE2=I Hear Music
TTITLE3=Soothe Me
TTITLE4=Balck Coffee
TTITLE5=Azure Interlude
TTITLE6=Gloomy Sunday
TTITLE7=Wrap Your Trouble in Dreams
TTITLE8=Oh You Crazy Moon
TTITLE9=I Get Along Without You Very Well
TTITLE10=It's Like Reaching for the Moon
TTITLE11=So Tired
TTITLE12=Jim
EXTD=YEAR: 2003
EXTT0=
EXTT1=
EXTT2=
EXTT3=
EXTT4=
EXTT5=
EXTT6=
EXTT7=
EXTT8=
EXTT9=
EXTT10=
EXTT11=
EXTT12=
PLAYORDER=
